<svg xmlns="http://www.w3.org/2000/svg" xmlns:xlink="http://www.w3.org/1999/xlink" width="100%" height="100%"><defs><pattern id="p" width="100" height="100" patternUnits="userSpaceOnUse"><path data-color="fill" fill="#000000" d="M50 0C22.4 0 0 22.4 0 50c27.6 0 50-22.4 50-50zM0 50c0 27.6 22.4 50 50 50 0-27.6-22.4-50-50-50zM100 50c-27.6 0-50 22.4-50 50 27.6 0 50-22.4 50-50zM100 50c0-27.6-22.4-50-50-50 0 27.6 22.4 50 50 50z"></path></pattern></defs><rect fill="#FFFFFF" width="100%" height="100%"></rect><rect fill="url(#p)" width="100%" height="100%"></rect></svg>