<svg width="647" height="264" viewBox="0 0 647 264" fill="none" xmlns="http://www.w3.org/2000/svg">
<path d="M497.918 38.9691C395.796 -12.5997 199.429 -3.87523 98.6326 41.25C52.7274 61.8016 -31.9205 121.35 19.5881 177.572C28.6729 187.488 39.7159 195.545 51.1412 202.516C176.882 279.231 352.257 271.418 487.205 225.515C507.331 218.669 527.136 210.542 545.356 199.497C558.984 191.235 572.159 180.996 582.771 169.046C613.836 134.064 605.721 98.8597 572.298 69.2026C533.546 34.8174 480.554 24.1617 430.552 18.3259C386.829 13.2231 343.16 12.2432 299.23 14.3258C216.843 18.2311 121.897 24.445 52.7979 71.4558C22.6173 91.9895 -9.80773 135.866 16.0624 171.379C44.096 209.86 110.196 222.32 154.656 230.44C274.594 252.347 464.368 241.485 573.617 183.998C585.398 177.799 597.332 172.021 607.871 163.869C616.198 157.428 624.171 150.083 631.088 142.134C680.104 85.8023 570.728 50.3833 532.154 44.3007C410.806 25.1659 231.204 -2.4476 119.448 48.4546" stroke="black" stroke-width="6" stroke-miterlimit="1.5" stroke-linecap="round" stroke-linejoin="round"/>
</svg>
