<svg width="514" height="261" viewBox="0 0 514 261" fill="none" xmlns="http://www.w3.org/2000/svg">
<path d="M151.48 -11.7945C149.977 -9.9901 148.564 -8.29438 147.332 -7.03346C132.123 8.46711 114.119 22.2068 93.8612 37.2943C91.1261 39.3161 88.3308 41.3814 85.5055 43.4466C68.794 55.6645 51.4814 68.2954 41.1419 83.2307C37.1444 89.0136 35.882 93.5355 37.5652 96.2965C38.3166 97.5574 39.6391 98.3835 41.5026 98.7531C42.254 98.9052 43.1257 98.9922 44.0574 98.9922C47.7544 98.9922 52.6837 97.6878 58.2742 95.2529C69.3952 90.3832 79.945 84.383 90.1643 78.5567C98.52 73.7956 107.176 68.8607 116.103 64.5996C152.081 47.3599 175.856 35.9464 186.977 3.79302C189.291 -2.88114 190.644 -18.0556 183.52 -24.6646C181.055 -26.9255 177.839 -28.0125 173.872 -27.8821C164.615 -27.5343 157.04 -18.447 151.48 -11.8163V-11.7945ZM174.563 -27.2299C177.9 -27.2299 180.695 -26.2299 182.799 -24.2515C189.712 -17.8382 188.359 -2.92464 186.105 3.64082C175.074 35.5551 151.42 46.8816 115.592 64.0561C106.635 68.3389 97.979 73.2739 89.5932 78.0567C79.404 83.8612 68.8541 89.8614 57.7933 94.7094C51.0606 97.6661 45.2898 98.8835 41.7431 98.1443C40.1501 97.8182 39.038 97.1008 38.3767 96.0356C36.8439 93.492 38.1062 89.057 41.9234 83.5351C52.2028 68.6867 69.4553 56.0993 86.1066 43.9032C88.932 41.8379 91.7573 39.7726 94.4924 37.7508C114.781 22.6415 132.785 8.88016 148.053 -6.64216C149.316 -7.92482 150.728 -9.62053 152.231 -11.4249C157.671 -17.9469 165.095 -26.8603 173.872 -27.1864C174.082 -27.1864 174.323 -27.1864 174.533 -27.1864L174.563 -27.2299Z" fill="black"/>
<path d="M169.604 -47.9704C156.409 -45.6225 144.897 -32.4045 135.61 -21.7953C132.364 -18.0778 129.298 -14.5776 126.623 -12.0775C111.715 1.85786 94.8831 14.4019 78.5924 26.5111C74.3545 29.6634 69.0044 33.2505 63.3838 37.0333C46.6122 48.2729 25.7529 62.2735 19.411 75.0784C14.0909 85.8397 17.2168 96.1228 20.2526 106.036C22.7473 114.189 25.3321 122.624 23.2883 131.363C22.0259 136.798 17.4873 142.147 12.6482 147.799C6.87736 154.582 0.926146 161.582 0.565467 169.126C0.44524 171.691 0.986259 174.213 2.18852 176.648C6.156 184.714 10.3038 188.453 15.2331 188.453C20.1624 188.453 25.4223 184.779 33.2971 175.8C40.8113 167.213 43.7568 157.278 46.6122 147.668C49.4676 138.016 52.4432 128.037 60.0175 119.406C74.4446 102.971 99.8725 90.8399 122.295 80.1656C124.188 79.2742 126.052 78.3612 127.915 77.4916C165.156 59.643 194.581 45.5337 207.716 7.55376C211.202 -2.49015 210.27 -28.1 196.144 -41.1875C189.291 -47.5573 180.274 -49.8618 169.634 -47.9704H169.604ZM194.942 -40.5353C207.595 -28.7956 210.12 -3.99023 206.243 7.27113C193.258 44.838 164.043 58.8386 127.074 76.5567C125.24 77.4481 123.347 78.3394 121.453 79.2308C98.8807 89.9704 73.3025 102.167 58.725 118.798C51.0005 127.602 48.0249 137.668 45.1094 147.429C42.2841 156.952 39.3686 166.8 32.0047 175.213C26.7448 181.213 20.6433 187.366 15.2331 187.366C11.0853 187.366 7.29815 183.735 3.60119 176.278C2.45903 173.952 1.94807 171.604 2.0683 169.148C2.42898 161.908 8.25996 155.017 13.9407 148.364C18.8399 142.603 23.4686 137.168 24.761 131.537C26.865 122.58 24.2501 114.037 21.7253 105.797C18.5994 95.5576 15.6238 85.905 20.8236 75.4263C27.0453 62.8822 47.7544 48.9903 64.4057 37.8159C70.0564 34.0114 75.4064 30.446 79.6745 27.2503C95.9952 15.0976 112.857 2.53179 127.825 -11.4471C130.56 -13.9907 133.626 -17.5343 136.902 -21.2518C146.039 -31.6871 157.371 -44.6876 169.965 -46.9486C172.249 -47.3616 174.473 -47.5573 176.577 -47.5573C183.73 -47.5573 189.922 -45.2094 194.942 -40.557V-40.5353Z" fill="black"/>
<path d="M183.43 -95.1682C176.276 -102.625 170.055 -103.582 163.442 -104.603C158.904 -105.299 154.185 -106.038 148.805 -108.973L148.354 -109.343C133.025 -121.756 81.5981 -162.236 64.1953 -162.236C62.1514 -162.236 60.5584 -161.715 59.4463 -160.671C57.132 -158.475 57.2522 -154.062 59.807 -147.17C61.3399 -143.083 75.8873 -137.431 91.3063 -131.431C104.141 -126.452 117.426 -121.3 121.934 -117.43C125.962 -113.952 131.282 -109.147 130.801 -107.495C130.68 -107.038 129.989 -106.777 128.817 -106.364C126.142 -105.408 122.084 -103.929 124.248 -97.0813C125.751 -92.342 129.809 -87.6244 133.716 -83.059C137.383 -78.8197 140.84 -74.7978 142.222 -70.9063C146.069 -60.2102 121.844 -40.5789 105.824 -27.6001C100.534 -23.3173 95.9651 -19.6215 93.0496 -16.817C81.3877 -5.62087 66.8102 4.77087 52.7437 14.793C25.3621 34.3156 -2.92113 54.4904 -12.8999 82.3394C-27.7178 123.993 -30.6934 160.756 -21.6464 191.627C-16.8373 208.106 -0.246089 231.063 15.8342 231.063C25.843 231.063 33.1468 222.367 37.505 205.193C54.3367 139.059 100.233 117.058 144.657 95.7748C184.001 76.9261 221.151 59.121 237.141 12.8582C243.152 -4.5991 233.895 -31.4263 221.842 -46.2748C216.462 -52.9055 209.699 -56.6231 203.147 -60.2319C197.406 -63.406 191.966 -66.3844 187.758 -71.1672C184.782 -74.5369 185.323 -78.4936 185.864 -82.6459C186.435 -86.9505 187.037 -91.4072 183.43 -95.19V-95.1682ZM185.985 -70.3193C190.373 -65.3191 195.963 -62.2538 201.885 -58.9928C208.257 -55.4709 214.869 -51.8403 220.039 -45.4704C231.881 -30.8828 240.988 -4.55561 235.097 12.5321C219.317 58.208 182.498 75.8609 143.485 94.5356C98.7303 115.993 52.4131 138.19 35.4311 204.953C31.3434 221.063 24.5506 229.585 15.8041 229.585C2.15844 229.585 -14.4629 209.019 -19.6326 191.344C-28.5895 160.712 -25.6439 124.167 -10.826 82.7742C-1.02756 55.3165 27.0754 35.2939 54.2465 15.9235C68.3731 5.85788 82.9807 -4.55564 94.7629 -15.8605C97.6182 -18.5997 102.157 -22.2738 107.417 -26.5348C124.729 -40.5572 148.414 -59.7754 144.266 -71.2324C142.763 -75.363 139.247 -79.4501 135.49 -83.7982C131.642 -88.2549 127.705 -92.842 126.292 -97.3422C124.489 -103.038 127.284 -104.038 129.749 -104.93C131.101 -105.43 132.514 -105.93 132.875 -107.125C133.325 -108.712 131.943 -111.147 123.557 -118.343C118.808 -122.43 105.343 -127.648 92.3283 -132.713C78.6525 -138.018 63.1734 -144.04 61.8809 -147.497C58.9354 -155.366 59.8671 -158.454 61.1596 -159.671C61.8509 -160.323 62.8427 -160.628 64.2253 -160.628C77.3601 -160.628 115.502 -133.561 146.821 -108.256C147.212 -107.951 147.422 -107.777 147.452 -107.777C153.313 -104.56 158.483 -103.756 163.021 -103.06C169.454 -102.06 175.014 -101.212 181.717 -94.2334C184.903 -90.9289 184.362 -86.9287 183.791 -82.7112C183.219 -78.4718 182.618 -74.0804 185.985 -70.2541V-70.3193Z" fill="black"/>
<path d="M158.784 8.61893H158.573C154.305 8.61893 149.977 12.5321 146.821 15.4018C146.13 16.0106 145.529 16.5758 144.988 17.0106C142.012 19.4672 139.127 22.0543 136.362 24.5762C134.558 26.2067 132.785 27.8154 130.951 29.4025L130.741 29.5981C124.73 34.7505 122.295 38.0985 123.257 39.8377C123.528 40.316 124.189 40.9247 125.812 41.0552C126.052 41.0552 126.293 41.0769 126.533 41.0769H126.683C138.706 40.8812 148.444 33.0113 153.193 28.3372C157.702 23.8805 160.918 19.0542 162.06 15.1192C162.331 14.2061 163.052 11.0755 161.339 9.51025C160.738 8.94501 159.866 8.64065 158.814 8.59717L158.784 8.61893ZM160.557 14.9235C159.475 18.7063 156.349 23.3805 151.961 27.7067C147.392 32.2287 138.015 39.8377 126.623 40.0117L126.503 40.5552V40.0117C126.323 40.0117 126.142 40.0116 125.962 39.9899C124.88 39.9029 124.7 39.5551 124.64 39.4464C124.309 38.8377 124.369 36.7506 131.883 30.2938L132.124 30.0981C133.957 28.4894 135.761 26.8806 137.564 25.2501C140.329 22.75 143.185 20.1629 146.16 17.728C146.701 17.2932 147.332 16.7062 148.024 16.0758C150.819 13.5322 155.057 9.70594 158.754 9.70594C159.355 9.70594 159.806 9.87985 160.166 10.2059C161.218 11.1625 161.038 13.3583 160.587 14.9235H160.557Z" fill="black"/>
<path d="M475.911 228.846C515.796 225.563 558.567 192.149 559.108 163.843C559.95 120.45 525.475 85.7744 492.112 52.2512C486.461 46.5553 480.6 40.6638 475.07 34.8809L471.733 31.4025C456.044 15.054 438.25 -3.4903 432.449 -23.5129C427.55 -40.4919 420.066 -79.9936 428.211 -93.6463C434.193 -103.647 451.205 -109.364 467.646 -114.886C479.007 -118.713 489.737 -122.322 497.282 -127.257L497.642 -127.496C514.835 -138.757 529.292 -144.533 541.014 -144.822C546.334 -144.953 552.946 -145.127 562.294 -145.757C574.828 -146.605 582.222 -147.931 587.632 -148.888C591.058 -149.497 593.553 -149.953 595.747 -149.953C601.157 -149.953 605.696 -147.17 620.694 -137.996C665.028 -110.843 664.186 -63.6233 663.404 -17.9474C662.383 39.5115 661.331 98.9489 751.26 117.754C764.184 120.45 776.778 121.841 788.68 121.841C822.494 121.841 851.258 110.906 871.907 90.2529C902.204 59.9255 910.26 12.6191 891.925 -27.4913C849.635 -120.061 748.585 -172.998 639.9 -223.435C541.104 -269.284 447.027 -281.915 366.565 -290.155C360.734 -290.742 355.204 -291.046 350.094 -291.046C317.483 -291.046 301.974 -279.046 282.347 -263.849C274.833 -258.023 267.048 -252.023 257.4 -245.87C246.339 -238.848 232.302 -234.044 218.687 -229.391C196.505 -221.804 175.556 -214.652 166.899 -198.716C148.535 -164.91 193.65 -138.583 233.475 -115.321C251.899 -104.56 269.302 -94.4073 279.521 -84.2546C319.948 -43.992 307.865 23.9022 271.196 62.056C259.744 73.9696 237.803 88.6876 214.569 104.297C176.097 130.124 132.484 159.408 124.79 183.996C121.183 195.562 122.115 203.649 127.675 208.693C132.334 212.91 140.179 214.954 151.66 214.954C170.566 214.954 197.617 209.323 226.261 203.366C261.277 196.084 300.982 187.822 334.826 187.822C350.966 187.822 364.341 189.627 375.672 193.366C388.717 197.671 399.778 203.866 410.448 209.888C428.091 219.802 444.743 229.172 468.307 229.172C470.772 229.172 473.326 229.063 475.881 228.846H475.911ZM376.334 192.366C364.792 188.561 351.236 186.714 334.856 186.714C300.801 186.714 260.976 194.996 225.87 202.301C197.317 208.236 170.356 213.845 151.66 213.845C140.66 213.845 133.206 211.932 128.878 207.997C123.618 203.236 122.746 195.453 126.263 184.235C133.867 159.973 177.299 130.82 215.591 105.08C238.885 89.4484 260.886 74.6653 272.428 62.6647C309.398 24.2066 321.541 -44.2747 280.724 -84.9069C270.414 -95.1682 252.921 -105.386 234.406 -116.191C195.002 -139.192 150.338 -165.28 168.282 -198.325C176.728 -213.847 197.407 -220.934 219.318 -228.413C233.024 -233.087 247.18 -237.935 258.392 -245.066C268.1 -251.24 275.915 -257.284 283.459 -263.11C302.845 -278.111 318.144 -289.959 350.124 -289.959C355.174 -289.959 360.644 -289.655 366.385 -289.068C446.666 -280.85 540.563 -268.241 639.119 -222.5C747.563 -172.171 848.403 -119.365 890.542 -27.1218C908.727 12.6843 900.762 59.5993 870.735 89.6441C850.387 110.015 822.013 120.776 788.711 120.776C776.958 120.776 764.515 119.428 751.711 116.732C711.886 108.406 686.668 91.2746 674.676 64.4039C663.915 40.3377 664.456 10.7277 664.967 -17.904C665.779 -63.819 666.621 -111.299 621.746 -138.8C600.316 -151.931 599.715 -152.149 587.331 -149.931C581.981 -148.975 574.617 -147.67 562.204 -146.823C552.916 -146.192 546.304 -146.018 541.014 -145.888C528.931 -145.583 514.153 -139.714 496.68 -128.278L496.32 -128.039C488.956 -123.213 478.316 -119.626 467.045 -115.843C450.333 -110.234 433.051 -104.408 426.859 -94.0377C418.563 -80.1458 426.077 -40.3615 431.007 -23.252C436.838 -3.01202 454.721 15.6192 470.501 32.0764L473.837 35.5549C479.368 41.3377 485.229 47.2293 490.91 52.9252C524.122 86.3179 558.477 120.819 557.635 163.865C557.094 191.714 515.015 224.563 475.761 227.802C473.266 227.998 470.772 228.107 468.367 228.107C445.314 228.107 428.873 218.845 411.44 209.062C400.68 203.019 389.559 196.757 376.364 192.409L376.334 192.366Z" fill="black"/>
<path d="M452.407 348.199C444.802 356.503 435.334 366.808 438.611 373.939C439.933 376.852 443.299 379.026 448.589 380.396C449.581 380.657 450.693 380.787 451.866 380.787C463.467 380.787 481.862 367.808 498.093 356.373C508.402 349.09 518.17 342.22 524.031 340.285C552.044 331.089 590.697 326.72 624.781 322.85C638.247 321.328 650.961 319.893 662.683 318.219C689.433 314.436 715.252 312.502 739.447 312.502C818.616 312.502 885.071 333.111 937.009 373.743C942.84 378.309 951.286 380.613 962.197 380.613C996.101 380.613 1054.26 356.743 1095.2 312.502C1119.69 286.044 1155.28 231.933 1118.28 166.952C1103.46 140.907 1081.43 128.776 1048.94 128.776C1024.23 128.776 996.04 135.342 963.399 142.951C923.243 152.321 877.708 162.93 828.715 162.93C790.573 162.93 755.558 156.56 721.654 143.494C617.057 103.145 614.021 29.5549 623.038 -30.0563C626.555 -53.2312 620.844 -71.5798 606.567 -83.1238C596.468 -91.2763 582.732 -95.5808 566.802 -95.5808C536.625 -95.5808 498.964 -78.6453 485.379 -46.2526C472.605 -15.7731 502.902 11.9455 537.978 44.0338C577.562 80.2092 622.407 121.211 613.69 175.931C609.362 203.062 595.686 229.085 577.051 245.564C562.925 258.065 550.451 259.173 537.226 260.347C527.127 261.239 516.698 262.173 504.465 267.782C495.117 272.065 492.202 279.37 489.106 287.087C486.972 292.414 484.747 297.914 480.269 302.436C477.804 304.914 473.506 305.458 468.998 306.023C463.017 306.784 456.224 307.632 452.647 313.219C450.152 317.111 453.459 321.698 456.645 326.133C459.32 329.828 462.055 333.655 461.243 336.829C460.582 339.372 456.855 343.459 452.527 348.177L452.407 348.199ZM458.087 325.589C454.961 321.241 451.986 317.111 454.12 313.784C457.336 308.784 463.377 308.023 469.208 307.284C473.897 306.697 478.706 306.088 481.592 303.197C486.25 298.501 488.505 292.892 490.699 287.479C493.704 279.979 496.56 272.913 505.336 268.891C517.239 263.434 527.488 262.521 537.377 261.63C550.962 260.412 563.766 259.282 578.344 246.39C597.159 229.737 611.015 203.454 615.373 176.105C624.15 120.863 579.065 79.644 539.3 43.2729C504.525 11.4672 474.468 -16.0122 487.002 -45.8613C500.347 -77.667 537.226 -94.2981 566.772 -94.2981C582.191 -94.2981 595.506 -90.1458 605.244 -82.2759C619.191 -71.0146 624.751 -53.0138 621.295 -30.1867C612.218 29.8158 615.313 103.906 720.812 144.603C754.986 157.778 790.273 164.191 828.715 164.191C877.978 164.191 923.634 153.538 963.91 144.147C996.401 136.559 1024.47 130.016 1048.91 130.016C1081.04 130.016 1101.93 141.56 1116.66 167.409C1153.36 231.868 1118.04 285.522 1093.75 311.784C1054.59 354.069 996.101 379.352 962.167 379.352C951.797 379.352 943.742 377.178 938.272 372.895C886.003 332.002 819.097 311.262 739.447 311.262C715.161 311.262 689.223 313.197 662.352 317.002C650.66 318.654 637.946 320.089 624.511 321.611C590.306 325.48 551.563 329.872 523.31 339.133C517.179 341.155 507.771 347.786 496.89 355.46C480.9 366.743 462.776 379.526 451.866 379.526C450.904 379.526 450.002 379.417 449.191 379.222C444.381 377.961 441.466 376.113 440.294 373.548C437.288 367.004 446.485 356.96 453.879 348.894C458.328 344.046 462.145 339.872 462.866 337.09C463.798 333.481 460.913 329.481 458.117 325.589H458.087Z" fill="black"/>
<path d="M495.177 325.35C497.101 325.72 500.557 325.894 504.945 325.894C514.083 325.894 548.017 324.915 600.946 312.263C645.19 301.697 696.947 295.871 746.631 295.871C828.445 295.871 882.787 304.741 952.789 353.199C957.748 356.634 964.421 358.373 972.566 358.373C1002.98 358.373 1049 334.416 1077.31 303.827C1099.44 279.935 1131.6 231.15 1098.38 172.822C1084.08 147.712 1066.13 144.255 1048.88 144.255C1027.54 144.255 1000.85 150.473 969.921 157.691C928.263 167.408 881.014 178.409 828.655 178.409C786.907 178.409 748.584 171.452 711.495 157.147C594.244 111.928 592.651 27.6633 601.668 -31.7741C604.463 -50.188 600.495 -64.7538 590.547 -72.7759C584.565 -77.6022 576.54 -80.0588 566.742 -80.0588C544.47 -80.0588 516.397 -66.9061 505.847 -41.7528C496.319 -19.0344 523.4 5.72752 554.749 34.4027C594.815 71.0347 644.679 116.624 634.94 177.713C632.145 195.214 625.713 211.845 615.764 227.15C599.924 251.521 579.005 272.196 553.547 288.609C536.745 299.436 519.884 307.023 507.59 312.545C496.379 317.589 489.617 320.611 490.098 322.937C490.308 323.981 491.931 324.763 495.177 325.35V325.35ZM508.071 313.11C520.395 307.567 537.286 299.979 554.148 289.109C579.696 272.63 600.706 251.89 616.606 227.455C626.615 212.084 633.077 195.366 635.872 177.822C645.641 116.471 595.656 70.7521 555.471 34.0331C524.272 5.51012 497.341 -19.1214 506.719 -41.5137C517.148 -66.3626 544.801 -79.3632 566.742 -79.3632C576.27 -79.3632 584.055 -76.9935 589.886 -72.2976C599.684 -64.406 603.531 -50.0141 600.796 -31.7959C591.779 27.8372 593.372 112.363 711.104 157.778C748.344 172.148 786.816 179.126 828.685 179.126C881.194 179.126 928.503 168.104 970.252 158.365C1001.09 151.169 1027.69 144.973 1048.91 144.973C1065.86 144.973 1083.48 148.386 1097.57 173.126C1130.6 231.172 1098.59 279.739 1076.59 303.523C1048.91 333.437 1002.23 357.765 972.596 357.765C964.661 357.765 958.229 356.091 953.42 352.764C919.486 329.285 887.927 314.35 854.053 305.762C824.898 298.392 792.768 295.24 746.601 295.24C696.797 295.24 644.949 301.066 600.616 311.654C547.836 324.263 514.023 325.241 504.915 325.241C500.617 325.241 497.221 325.046 495.387 324.698C492.622 324.176 491.149 323.546 490.969 322.807C490.578 320.915 497.912 317.632 508.041 313.067L508.071 313.11Z" fill="black"/>
<path d="M398.785 75.1002C396.772 73.774 394.968 73.1436 393.285 73.1436C389.077 73.1436 386.132 77.0133 381.683 82.8613C377.055 88.9267 370.743 97.2314 359.802 105.645L356.586 108.101C344.052 117.71 338.312 122.102 339.724 124.472C340.355 125.537 342.309 126.015 346.006 126.015C349.162 126.015 353.791 125.689 361.515 124.906C364.701 124.58 367.947 124.428 371.163 124.428C397.222 124.428 418.953 134.994 434.823 142.711C444.111 147.233 451.445 150.799 456.705 150.799C458.899 150.799 460.702 150.168 462.055 148.907C478.706 133.45 420.486 89.3398 398.785 75.1002V75.1002ZM460.882 148.233C459.83 149.233 458.448 149.712 456.705 149.712C451.895 149.712 444.742 146.233 435.665 141.798C419.645 133.994 397.703 123.319 371.163 123.319C367.887 123.319 364.551 123.493 361.305 123.819C353.67 124.602 349.072 124.928 346.006 124.928C343.121 124.928 341.468 124.624 341.107 124.037C340.085 122.341 347.088 116.971 357.698 108.841L360.914 106.384C371.975 97.8836 378.377 89.492 383.006 83.3831C387.214 77.8611 389.979 74.2306 393.315 74.2306C394.608 74.2306 396.08 74.7741 397.794 75.9045C424.754 93.5791 475.64 134.537 460.882 148.233V148.233Z" fill="black"/>
<path d="M399.206 93.2312C388.686 93.2312 375.131 105.232 375.071 110.928C375.071 113.254 377.054 114.623 380.571 114.667C396.08 114.863 412.461 121.971 424.423 127.167C431.517 130.233 436.626 132.472 439.662 132.472C440.624 132.472 441.405 132.255 441.946 131.82C442.638 131.276 442.908 130.45 442.788 129.298C441.676 118.841 414.234 97.9053 403.113 93.8834C401.941 93.4486 400.619 93.2529 399.236 93.2529L399.206 93.2312ZM440.684 129.385C440.774 130.298 440.534 130.646 440.384 130.754C440.323 130.798 440.173 130.928 439.632 130.928C437.167 130.928 431.757 128.58 425.475 125.841C413.303 120.558 396.651 113.341 380.601 113.145C378.226 113.123 377.175 112.428 377.175 110.928C377.235 105.84 389.828 94.7313 399.206 94.7313C400.288 94.7313 401.28 94.8834 402.152 95.2096C414.144 99.5358 439.662 119.906 440.684 129.363V129.385Z" fill="black"/>
<path d="M478.736 206.15C499.295 204.454 518.651 194.236 528.089 180.127C536.685 167.235 541.344 145.364 514.653 114.407C503.202 101.102 490.698 87.6881 478.616 74.7093C444.05 37.599 411.409 2.53218 397.914 -32.6433C382.675 -72.4276 394.908 -105.255 436.446 -135.93C472.424 -162.497 519.943 -177.737 566.862 -177.737C602.118 -177.737 633.587 -168.758 655.439 -152.475C679.454 -134.582 691.477 -108.386 690.154 -76.7539C689.853 -69.4057 689.373 -61.8184 688.862 -53.7746C687.058 -25.2081 684.984 7.16286 691.356 34.0988C698.69 65.0784 716.093 84.2097 744.526 92.6013C759.765 97.1015 774.192 99.3625 787.447 99.3625C811.523 99.3625 832.021 91.7535 846.719 77.3833C871.696 52.9257 877.677 11.0543 861.627 -26.8169C827.152 -108.081 744.256 -156.583 621.715 -208.542C528.63 -248 450.002 -260.175 378.918 -267.458C373.628 -268.001 368.578 -268.284 363.92 -268.284C334.224 -268.284 320.097 -257.349 302.213 -243.5C295.33 -238.174 288.237 -232.695 279.4 -227.065C269.241 -220.608 260.405 -216.673 252.59 -213.195C240.056 -207.629 229.266 -202.825 217.333 -189.954C193.709 -164.41 225.328 -148.735 258.782 -132.148C276.455 -123.386 294.759 -114.321 304.558 -103.581C366.114 -36.1217 341.287 35.838 297.494 80.6878C284.991 93.5144 266.716 105.624 247.36 118.429C223.705 134.103 199.239 150.3 185.263 168.409C179.252 176.192 177.538 181.475 180.033 184.562C181.867 186.823 185.924 187.91 192.386 187.91C203.928 187.91 222.263 184.453 243.513 180.431C273.299 174.822 310.359 167.822 343.12 167.822C360.463 167.822 375.341 169.822 387.334 173.757C399.266 177.692 409.365 183.366 419.134 188.866C435.214 197.91 450.362 206.432 471.823 206.432C474.077 206.432 476.391 206.345 478.706 206.15H478.736ZM387.724 173.17C375.461 169.126 360.884 167.17 343.15 167.17C310.299 167.17 273.149 174.17 243.332 179.801C222.142 183.801 203.868 187.236 192.416 187.258C186.285 187.258 182.498 186.258 180.815 184.214C178.5 181.344 180.214 176.279 186.045 168.713C199.961 150.713 224.367 134.538 247.991 118.907C267.378 106.058 285.682 93.9492 298.246 81.0574C323.914 54.7736 339.063 24.794 342.038 -5.64206C345.465 -40.4262 333.112 -73.5146 305.309 -103.951C295.421 -114.777 277.056 -123.886 259.292 -132.691C226.2 -149.105 194.941 -164.584 218.085 -189.607C229.867 -202.368 240.627 -207.129 253.041 -212.651C260.885 -216.129 269.752 -220.086 279.971 -226.586C288.838 -232.217 295.962 -237.739 302.845 -243.065C320.578 -256.783 334.614 -267.632 363.889 -267.632C368.488 -267.632 373.508 -267.349 378.768 -266.827C449.761 -259.544 528.299 -247.392 621.234 -207.999C743.595 -156.149 826.341 -107.712 860.725 -26.6647C876.715 11.0326 870.794 52.6648 845.967 76.9702C831.45 91.1665 811.222 98.6886 787.417 98.6886C774.283 98.6886 759.976 96.4276 744.857 91.9709C716.724 83.6662 699.502 64.7088 692.228 33.9683C685.856 7.09761 687.93 -25.2516 689.733 -53.7746C690.244 -61.8184 690.725 -69.4057 691.026 -76.7539C692.348 -108.581 680.265 -134.93 656.07 -152.953C634.038 -169.367 602.359 -178.41 566.862 -178.41C519.703 -178.41 471.913 -163.105 435.785 -136.409C413.723 -120.104 400.108 -103.299 394.126 -84.9934C388.806 -68.6448 389.738 -51.4919 397.012 -32.4911C410.537 2.79308 443.209 37.8816 477.834 75.0571C489.917 88.0359 502.42 101.45 513.872 114.733C540.352 145.451 535.753 167.083 527.247 179.823C517.96 193.736 498.874 203.824 478.616 205.476C476.331 205.672 474.047 205.758 471.823 205.758C450.693 205.758 435.635 197.28 419.705 188.323C409.906 182.801 399.747 177.105 387.724 173.127V173.17Z" fill="black"/>
<path d="M498.453 179.191C506.328 175.039 510.957 169.234 512.159 161.952C515.736 140.581 489.526 109.384 465.992 89.1875C436.627 63.969 407.472 37.0548 393.195 11.0102C392.504 9.72753 391.422 6.09695 390.069 1.50979C385.47 -13.9691 377.806 -39.8616 366.685 -39.8616C365.663 -39.8616 364.611 -39.6442 363.589 -39.1876C358.96 -37.2093 357.608 -33.2961 359.411 -27.2741C360.884 -22.3391 364.281 -16.6432 367.286 -11.6212C370.472 -6.31662 373.207 -1.72947 373.147 0.879343C373.027 7.59703 368.699 10.5537 364.521 13.4233C361.245 15.6626 357.878 17.967 356.646 21.9889C355.083 27.1631 358.029 31.0546 360.884 34.8156C363.529 38.294 366.234 41.8811 365.393 46.5117C363.8 55.0121 326.59 85.6439 293.798 112.689C266.627 135.059 243.182 154.386 243.573 158.082C243.573 158.364 243.754 158.582 243.994 158.734C246.248 160.082 250.306 160.734 256.467 160.734C266.176 160.734 279.671 159.169 295.331 157.343C314.296 155.147 335.787 152.647 354.452 152.647C369.029 152.647 379.94 154.147 387.785 157.234C392.053 158.908 396.832 160.908 401.851 163.017C424.274 172.452 452.166 184.17 475.791 184.17C484.537 184.17 492.171 182.496 498.423 179.213L498.453 179.191ZM388.266 156.625C380.271 153.495 369.21 151.951 354.512 151.951C335.787 151.951 314.266 154.451 295.24 156.647C279.641 158.451 266.146 160.017 256.528 160.017C250.606 160.017 246.699 159.408 244.625 158.169C244.625 158.169 244.535 158.104 244.505 157.973C244.144 154.538 268.61 134.407 294.489 113.058C327.401 85.9482 364.671 55.2295 366.324 46.5552C367.226 41.7072 364.431 38.0331 361.726 34.4678C358.81 30.6415 356.075 27.0326 357.578 22.0976C358.72 18.2714 361.876 16.1409 365.182 13.8799C369.51 10.9232 373.989 7.85791 374.109 0.879343C374.169 -1.85991 371.374 -6.51229 368.158 -11.9038C365.182 -16.9041 361.786 -22.5565 360.313 -27.4262C358.6 -33.1439 359.832 -36.818 364.07 -38.6441C364.942 -39.0137 365.843 -39.2094 366.715 -39.2094C377.115 -39.2094 384.99 -12.643 389.197 1.64023C390.61 6.44478 391.632 9.90145 392.383 11.2493C406.69 37.3809 435.905 64.3386 465.331 89.6006C488.745 109.71 514.834 140.69 511.287 161.865C510.085 168.974 505.607 174.626 497.942 178.67C491.841 181.887 484.417 183.496 475.851 183.496C452.497 183.496 424.694 171.822 402.362 162.43C397.313 160.321 392.564 158.321 388.266 156.625V156.625Z" fill="black"/>
<path d="M488.174 151.908C490.849 133.994 464.339 105.906 451.084 95.1011C428.211 76.4699 412.251 60.5779 401.701 50.0774C391.241 39.6639 385.47 33.9028 381.743 33.9028C379.188 33.9028 377.776 36.2943 376.904 42.1858C370.352 86.4485 330.767 110.428 307.113 124.733C296.743 131.016 289.92 135.146 289.62 138.559C289.529 139.538 290.01 140.451 291.062 141.233C293.226 142.886 296.623 143.668 301.823 143.668C307.654 143.668 315.017 142.69 323.553 141.56C334.614 140.081 347.178 138.429 360.012 138.429C377.505 138.429 391.602 141.581 403.143 148.06C419.404 157.191 443.449 166.952 462.295 166.952C469.088 166.952 474.889 165.713 479.577 163.234C484.537 160.626 487.452 156.799 488.174 151.886V151.908ZM462.295 166.321C443.69 166.321 419.855 156.647 403.714 147.582C391.992 140.994 377.715 137.799 360.042 137.799C347.118 137.799 334.524 139.472 323.403 140.951C314.927 142.081 307.593 143.038 301.853 143.038C296.923 143.038 293.707 142.32 291.754 140.799C290.882 140.125 290.491 139.407 290.551 138.603C290.822 135.472 297.915 131.168 307.714 125.233C331.458 110.841 371.223 86.7746 377.806 42.251C378.587 36.9247 379.819 34.555 381.743 34.555C385.019 34.555 391.031 40.5335 400.979 50.447C411.529 60.9692 427.519 76.8612 450.392 95.5141C463.557 106.254 489.917 134.124 487.272 151.821C486.55 156.538 483.785 160.212 479.036 162.713C474.498 165.104 468.877 166.3 462.265 166.3L462.295 166.321Z" fill="black"/>
<path d="M472.995 257.434C517.749 253.738 571.04 215.28 585.317 185.887C610.113 134.863 566.02 93.7746 523.37 54.0338C482.222 15.6843 443.329 -20.5346 462.235 -64.6452C478.706 -103.06 531.906 -123.8 573.595 -123.8C596.077 -123.8 615.493 -118.039 628.328 -107.56C643.566 -95.1248 649.548 -76.2327 645.64 -52.9273C632.205 27.1413 628.207 114.732 751.62 140.559C765.777 143.516 779.753 145.016 793.188 145.016C845.156 145.016 878.308 123.493 896.974 105.427C932.771 70.7954 945.214 18.9888 927.902 -23.4696C913.234 -59.4711 884.35 -94.4074 839.656 -130.235C773.201 -183.498 682.67 -229.283 562.924 -270.241L557.755 -272.024C507.38 -289.264 455.292 -307.09 400.438 -316.917C397.192 -317.504 393.586 -318.2 389.738 -318.939C372.786 -322.2 351.717 -326.243 333.623 -326.243C326.379 -326.243 320.097 -325.569 314.987 -324.243C307.173 -322.221 302.785 -318.352 298.516 -314.612C295.33 -311.83 292.054 -308.938 287.365 -306.873C284.33 -305.525 278.379 -303.873 272.127 -302.112C261.998 -299.286 251.478 -296.351 248.172 -293.525C241.77 -288.09 243.543 -284.829 245.226 -281.655C246.458 -279.394 247.601 -277.241 246.098 -274.046L244.926 -271.524C238.854 -258.61 228.825 -250.689 214.839 -247.762C210.781 -246.914 205.732 -245.849 199.75 -244.479C182.468 -240.501 175.375 -234.37 168.522 -228.435C163.262 -223.869 158.272 -219.565 148.865 -216.087C148.624 -216.087 148.324 -216.087 148.023 -216.087C137.203 -216.087 55.1481 -212.173 48.8362 -197.586C47.1531 -193.651 50.82 -189.39 59.8069 -184.889C71.0481 -179.259 79.5541 -178.607 84.9943 -178.607C87.6393 -178.607 90.0438 -178.781 92.3582 -178.933C94.3419 -179.063 96.2054 -179.194 97.9788 -179.194C104.591 -179.194 111.264 -177.846 120.401 -161.519C122.655 -157.497 124.399 -154.214 125.841 -151.475C132.935 -138.04 133.175 -137.866 151.179 -132.3C155.657 -130.931 161.218 -129.213 168.281 -126.844C191.485 -119.104 196.234 -110.321 202.245 -99.1902C205.431 -93.3204 209.038 -86.6461 215.861 -79.1458C223.165 -71.1237 231.731 -64.6669 240.026 -58.4275C254.724 -47.3619 268.61 -36.9049 273.028 -19.4476C280.693 10.7928 258 39.6636 232.332 66.3604C219.888 79.3175 194.31 94.3833 167.229 110.341C121.243 137.429 69.1244 168.147 68.9441 196.583C68.8239 212.823 74.5948 225.28 86.0764 233.628C98.5799 242.716 117.576 247.129 144.176 247.129C182.738 247.129 230.108 237.716 271.916 229.433C304.828 222.911 333.262 217.258 351.416 217.258C355.534 217.258 359.02 217.563 361.756 218.15C379.279 221.911 393.165 229.954 406.63 237.737C424.454 248.064 441.315 257.803 465.391 257.803C467.855 257.803 470.38 257.695 472.905 257.499L472.995 257.434ZM362.447 216.628C359.441 215.976 355.864 215.671 351.506 215.671C333.052 215.671 304.498 221.345 271.435 227.889C229.747 236.15 182.498 245.542 144.236 245.542C118.237 245.542 99.7221 241.281 87.6393 232.498C76.5785 224.454 71.018 212.367 71.1082 196.54C71.2885 168.821 122.986 138.342 168.612 111.471C195.813 95.4486 221.481 80.3175 234.105 67.1865C260.014 40.2071 282.947 11.0102 275.132 -19.7737C270.594 -37.6875 256.497 -48.2967 241.589 -59.5363C233.354 -65.7322 224.848 -72.1455 217.664 -80.0372C210.962 -87.4071 207.385 -93.9725 204.259 -99.7989C198.067 -111.256 193.168 -120.278 169.213 -128.278C162.12 -130.648 156.529 -132.366 152.051 -133.757C140.469 -137.337 132.394 -143.446 127.825 -152.084C126.382 -154.823 124.639 -158.127 122.385 -162.149C113.638 -177.737 106.815 -180.781 98.0088 -180.781C96.1453 -180.781 94.2217 -180.65 92.1779 -180.498C89.9236 -180.346 87.5792 -180.172 85.0244 -180.172C79.4339 -180.172 71.6793 -180.846 61.0392 -186.172C52.8939 -190.238 49.4975 -193.933 50.8801 -197.151C56.3504 -209.825 132.844 -214.586 148.053 -214.586C148.414 -214.586 148.654 -214.586 148.805 -214.586L149.045 -215.282L149.496 -214.608C159.475 -218.261 164.915 -222.935 170.145 -227.478C177.118 -233.5 183.7 -239.196 200.412 -243.044C206.363 -244.414 211.382 -245.457 215.44 -246.305C237.291 -250.871 237.562 -251.11 246.939 -271.045L248.112 -273.567C249.855 -277.285 248.442 -279.894 247.21 -282.22C245.587 -285.22 244.204 -287.807 249.795 -292.546C252.77 -295.068 263.47 -298.068 272.908 -300.699C279.28 -302.482 285.292 -304.156 288.508 -305.569C293.497 -307.764 296.893 -310.743 300.17 -313.634C304.438 -317.373 308.465 -320.917 315.709 -322.787C320.608 -324.048 326.649 -324.7 333.653 -324.7C351.476 -324.7 372.396 -320.678 389.227 -317.439C393.075 -316.7 396.681 -316.004 399.958 -315.417C454.6 -305.634 506.598 -287.829 556.883 -270.632L562.053 -268.85C681.528 -228 771.848 -182.324 838.123 -129.213C882.607 -93.5595 911.341 -58.8189 925.918 -23.0347C943.05 18.9888 930.757 70.2519 895.32 104.514C876.926 122.298 844.284 143.494 793.218 143.494C779.993 143.494 766.227 142.016 752.251 139.081C630.432 113.602 634.429 26.7065 647.774 -52.7534C651.772 -76.4935 645.61 -95.7987 629.951 -108.56C616.726 -119.365 596.738 -125.3 573.655 -125.3C531.215 -125.3 477.053 -104.19 460.281 -65.0583C441.045 -20.2085 482.072 18.0322 521.777 55.0121C564.067 94.4268 607.829 135.189 583.393 185.431C569.296 214.41 516.818 252.347 472.815 255.977C470.35 256.173 467.916 256.282 465.541 256.282C442.187 256.282 425.626 246.694 408.073 236.542C394.487 228.672 380.421 220.541 362.507 216.671L362.447 216.628Z" fill="black"/>
</svg>
